<?xml version="1.0" standalone="no"?>
<!DOCTYPE svg PUBLIC "-//W3C//DTD SVG 20010904//EN"
 "http://www.w3.org/TR/2001/REC-SVG-20010904/DTD/svg10.dtd">
<svg version="1.0" xmlns="http://www.w3.org/2000/svg"
 width="697.000000pt" height="697.000000pt" viewBox="0 0 697.000000 697.000000"
 preserveAspectRatio="xMidYMid meet">
<metadata>
Created by potrace 1.14, written by Peter Selinger 2001-2017
</metadata>
<g transform="translate(0.000000,697.000000) scale(0.100000,-0.100000)"
fill="#000000" stroke="none">
<path d="M3269 6965 c-2 -1 -44 -6 -94 -9 -49 -4 -98 -9 -110 -11 -11 -2 -39
-6 -62 -9 -24 -3 -71 -10 -105 -16 -135 -24 -165 -30 -303 -67 -247 -66 -395
-121 -635 -235 -118 -57 -313 -167 -318 -180 -2 -4 -8 -8 -14 -8 -12 0 -221
-143 -291 -200 -10 -8 -28 -23 -40 -33 -191 -155 -383 -348 -522 -522 -22 -27
-42 -52 -45 -55 -3 -3 -17 -21 -30 -40 -13 -19 -27 -37 -30 -40 -10 -9 -130
-188 -130 -195 0 -3 -5 -11 -10 -18 -23 -28 -59 -87 -52 -87 4 0 2 -4 -4 -8
-6 -4 -34 -52 -63 -107 -29 -55 -57 -106 -63 -112 -6 -7 -8 -13 -5 -13 3 0
-19 -53 -49 -117 -30 -65 -54 -124 -54 -131 0 -7 -5 -22 -12 -35 -6 -12 -14
-29 -18 -37 -7 -15 -70 -212 -75 -234 -1 -6 -5 -18 -8 -26 -7 -18 -47 -185
-53 -220 -2 -14 -7 -36 -10 -50 -3 -14 -8 -36 -10 -50 -2 -14 -6 -38 -8 -55
-3 -16 -8 -50 -11 -75 -3 -25 -8 -54 -10 -65 -26 -130 -27 -675 0 -836 2 -13
6 -44 9 -69 10 -75 36 -214 61 -320 9 -36 18 -76 21 -89 3 -14 7 -28 10 -33 3
-5 8 -21 10 -36 9 -47 96 -294 131 -372 19 -41 34 -76 33 -78 -3 -6 134 -277
142 -280 4 -2 8 -8 8 -14 0 -21 169 -282 262 -403 21 -27 44 -57 51 -66 106
-139 353 -392 477 -489 25 -19 47 -37 50 -41 3 -4 28 -24 55 -44 28 -21 52
-41 55 -44 3 -3 12 -10 21 -16 8 -5 67 -44 130 -86 63 -42 130 -85 149 -95 19
-10 40 -24 47 -30 20 -19 358 -184 376 -184 9 0 17 -4 17 -10 0 -5 6 -10 14
-10 7 0 44 -13 82 -28 38 -16 74 -30 79 -32 12 -3 16 -4 75 -23 25 -8 79 -24
120 -36 41 -12 90 -27 108 -33 19 -5 44 -12 55 -13 12 -2 76 -15 142 -29 66
-13 149 -27 185 -31 35 -3 67 -8 70 -10 17 -10 215 -20 410 -19 201 0 334 6
425 19 17 3 50 7 74 9 24 3 51 8 60 10 9 3 32 8 51 10 46 6 216 42 260 56 19
6 47 13 62 15 35 7 330 105 343 115 6 4 21 11 35 15 58 17 425 195 440 214 3
3 19 13 35 22 43 23 79 43 85 49 14 14 102 70 110 70 6 0 10 4 10 9 0 5 8 12
18 15 10 4 27 14 38 24 11 9 42 34 69 54 65 49 61 45 130 103 132 111 285 261
409 405 107 123 296 390 371 525 82 145 224 445 231 485 0 3 5 16 11 30 15 35
84 241 88 263 2 10 7 27 10 37 3 10 7 27 9 37 2 10 13 54 24 98 19 78 32 138
37 182 2 11 6 29 9 40 3 10 8 43 11 73 4 30 8 66 10 80 21 148 27 523 13 710
-10 118 -36 299 -64 425 -2 11 -6 30 -8 43 -3 13 -7 31 -10 40 -3 9 -8 31 -11
47 -7 34 -10 44 -18 65 -3 8 -11 35 -17 60 -12 47 -55 181 -70 215 -4 11 -23
58 -41 105 -71 186 -210 450 -332 635 -60 90 -166 232 -201 270 -10 11 -30 36
-45 55 -64 84 -259 281 -387 390 -87 75 -184 150 -192 150 -6 0 -12 3 -14 8
-5 12 -116 92 -128 92 -5 0 -10 4 -10 9 0 5 -8 11 -17 15 -10 3 -45 24 -78 45
-76 50 -82 54 -245 138 -75 39 -147 74 -160 78 -14 4 -51 20 -82 36 -32 15
-58 25 -58 22 0 -3 -6 -1 -12 5 -10 7 -256 94 -278 97 -3 1 -30 8 -60 17 -30
10 -66 19 -80 22 -14 3 -65 15 -115 26 -49 11 -106 22 -125 25 -20 3 -47 7
-60 10 -45 9 -158 24 -230 31 -55 6 -537 14 -541 9z"/>
</g>
</svg>
